<svg width="145" height="30" viewBox="0 0 145 30" fill="none" xmlns="http://www.w3.org/2000/svg">
<path d="M39.123 9.54559H40.6945L45.0963 19.7617H43.0177L42.0667 17.424H37.6376L36.7138 19.7617H34.6804L39.123 9.54559ZM41.4326 15.8655L39.8612 11.7111L38.2581 15.8655H41.4326Z" fill="white"/>
<path d="M47.0437 9.54559H49.1359L51.9211 17.2654L54.7922 9.54559H56.7531L52.6275 19.7617H51.0561L47.0437 9.54559Z" fill="white"/>
<path d="M63.2518 9.54559H64.8232L69.2205 19.7617H67.1419L66.1909 17.424H61.7618L60.838 19.7617H58.8046L63.2518 9.54559ZM65.5569 15.8655L63.9854 11.7111L62.3823 15.8655H65.5569Z" fill="white"/>
<path d="M73.2419 9.54559H75.0579V18.1171H79.4009V19.7617H73.2419V9.54559Z" fill="white"/>
<path d="M86.914 9.54559H88.4855L92.8873 19.7617H90.8086L89.8576 17.424H85.4241L84.5002 19.7617H82.4669L86.914 9.54559ZM89.2191 15.8655L87.6476 11.7111L86.0445 15.8655H89.2191Z" fill="white"/>
<path d="M96.9042 9.54559H99.3135L104.263 17.1385H104.29V9.54559H106.106V19.7617H103.797L98.7474 11.9241H98.7202V19.7617H96.9042V9.54559Z" fill="white"/>
<path d="M118.284 11.9421C117.908 11.5389 117.546 11.2671 117.188 11.1357C116.844 10.9998 116.491 10.9318 116.137 10.9318C115.608 10.9318 115.128 11.027 114.693 11.2218C114.272 11.403 113.905 11.6658 113.597 12.001C113.289 12.3272 113.049 12.7123 112.877 13.1563C112.714 13.6002 112.632 14.0759 112.632 14.5833C112.632 15.1315 112.714 15.6389 112.877 16.0965C113.049 16.5586 113.289 16.9573 113.597 17.2925C113.905 17.6278 114.272 17.8951 114.693 18.0853C115.128 18.2756 115.608 18.3753 116.137 18.3753C116.55 18.3753 116.948 18.2802 117.333 18.0853C117.727 17.8815 118.094 17.5643 118.429 17.134L119.928 18.2031C119.466 18.8374 118.904 19.2995 118.239 19.5894C117.578 19.8794 116.867 20.0244 116.119 20.0244C115.331 20.0244 114.607 19.8975 113.941 19.6483C113.289 19.3901 112.718 19.0277 112.238 18.5656C111.767 18.0944 111.396 17.5326 111.129 16.8757C110.862 16.2234 110.726 15.494 110.726 14.6966C110.726 13.8766 110.862 13.1381 111.129 12.4722C111.396 11.7971 111.767 11.2263 112.238 10.7552C112.718 10.284 113.284 9.92156 113.941 9.67239C114.602 9.41416 115.331 9.28278 116.119 9.28278C116.812 9.28278 117.451 9.40962 118.039 9.6588C118.637 9.89891 119.19 10.3112 119.697 10.9001L118.284 11.9421Z" fill="white"/>
<path d="M124.031 9.54559H125.847V13.6139H130.62V9.54559H132.436V19.7617H130.62V15.2584H125.847V19.7617H124.031V9.54559Z" fill="white"/>
<path d="M137.612 9.54559H144.378V11.1901H139.428V13.7H144.115V15.3445H139.428V18.1171H144.636V19.7617H137.612V9.54559Z" fill="white"/>
<path fill-rule="evenodd" clip-rule="evenodd" d="M29.3004 14.6558C29.3004 22.7517 22.7429 29.3117 14.6502 29.3117C6.5575 29.3117 0 22.7517 0 14.6558C0 6.56002 6.5575 0 14.6502 0C22.7429 0 29.3004 6.56002 29.3004 14.6558ZM10.4974 20.4865H7.65343C7.05565 20.4865 6.76129 20.4865 6.58014 20.3732C6.38541 20.2464 6.26766 20.038 6.25408 19.8069C6.24502 19.594 6.38994 19.3358 6.6843 18.8148L13.7037 6.4377C14.0026 5.91217 14.1521 5.64941 14.3423 5.54974C14.5461 5.44554 14.7906 5.44554 14.9989 5.54974C15.1891 5.64488 15.3386 5.90764 15.6375 6.4377L17.0821 8.9566L17.0912 8.9702C17.4127 9.53196 17.5757 9.82191 17.6482 10.1209C17.7252 10.4471 17.7252 10.7959 17.6482 11.1221C17.5757 11.4257 17.4127 11.7111 17.0866 12.2864L13.4003 18.8057L13.3912 18.8238C13.0652 19.3946 12.9021 19.6801 12.6757 19.8975C12.4266 20.1331 12.1277 20.3098 11.8017 20.4049C11.5028 20.4865 11.1677 20.4865 10.4974 20.4865ZM17.6754 20.4865H21.7511C22.3535 20.4865 22.6523 20.4865 22.8335 20.3687C23.0282 20.2418 23.1505 20.0289 23.1596 19.7979C23.1686 19.594 23.0237 19.3448 22.7429 18.8555C22.7339 18.8374 22.7248 18.8238 22.7112 18.8057L20.6688 15.3128L20.6462 15.272C20.3608 14.7872 20.2159 14.5426 20.0303 14.4475C19.8265 14.3433 19.5819 14.3433 19.3781 14.4475C19.1925 14.5426 19.0385 14.8008 18.7396 15.3173L16.7062 18.8102L16.6972 18.8238C16.3983 19.3358 16.2488 19.594 16.2624 19.8069C16.276 20.038 16.3937 20.2509 16.5885 20.3777C16.7741 20.4865 17.0776 20.4865 17.6754 20.4865Z" fill="white"/>
</svg>
